# xmcd
#
# Track frame offsets:
#  150
#  83196
#  110950
#  124906
#  146401
#  164646
#  178700
#  190720
#  214764
#  315296
#
# Disc length: 4207 seconds
#
# Revision: 0
# Processed by: cddbd v1.5.1PL2 Copyright (c) Steve Scherf et al.
# Submitted via: Collectorz.com_Music_Collector 6.11
#
DISCID=8e106d0a
DTITLE=Strauss - Don Juan, Lieder and Macbeth
DYEAR=1900
DGENRE=Classical
TTITLE0=Don Juan
TTITLE1=Schwanewilms - Die Heilgen drei Konige
TTITLE2=Schwanewilms - Waldseligkeit
TTITLE3=Schwanewilms - Wiegenlied
TTITLE4=Schwanewilms - Morgen!
TTITLE5=Schwanewilms - Das Rosenband
TTITLE6=Schwanewilms - Meinem Kinde
TTITLE7=Schwanewilms - Befreit
TTITLE8=Macbeth
TTITLE9=Data track
EXTD=
EXTT0=
EXTT1=
EXTT2=
EXTT3=
EXTT4=
EXTT5=
EXTT6=
EXTT7=
EXTT8=
EXTT9=
PLAYORDER=
